HIERARCHY
ROOT Hips
{
	OFFSET 0.000000 0.000000 0.000000
	CHANNELS 6 Xposition Yposition Zposition Zrotation Yrotation Xrotation 
	JOINT LeftUpLeg_virtual
	{
		OFFSET 0.000000 0.000000 0.000000
		CHANNELS 3 Zrotation Yrotation Xrotation
		JOINT LeftUpLeg
		{
			OFFSET 8.479694 -4.795517 -0.379053
			CHANNELS 3 Zrotation Yrotation Xrotation
			JOINT LeftLeg
			{
				OFFSET 0.485052 -32.551468 0.112863
				CHANNELS 3 Zrotation Yrotation Xrotation
				JOINT LeftFoot
				{
					OFFSET 0.438033 -32.635670 -3.012641
					CHANNELS 3 Zrotation Yrotation Xrotation
					JOINT LeftToeBase
					{
						OFFSET 0.970169 -13.225353 11.864223
						CHANNELS 3 Zrotation Yrotation Xrotation
						End Site
						{
							OFFSET 0.000000 0.000000 0.000000
						}
					}
				}
			}
		}
	}
	JOINT RightUpLeg_virtual
	{
		OFFSET 0.000000 0.000000 0.000000
		CHANNELS 3 Zrotation Yrotation Xrotation
		JOINT RightUpLeg
		{
			OFFSET -8.479694 -4.795517 -0.379053
			CHANNELS 3 Zrotation Yrotation Xrotation
			JOINT RightLeg
			{
				OFFSET -0.484100 -32.551483 0.112903
				CHANNELS 3 Zrotation Yrotation Xrotation
				JOINT RightFoot
				{
					OFFSET -0.438985 -32.635651 -3.012681
					CHANNELS 3 Zrotation Yrotation Xrotation
					JOINT RightToeBase
					{
						OFFSET -0.970169 -13.225354 11.864223
						CHANNELS 3 Zrotation Yrotation Xrotation
						End Site
						{
							OFFSET 0.000000 0.000000 0.000000
						}
					}
				}
			}
		}
	}
	JOINT Spine_virtual
	{
		OFFSET 0.000000 0.000000 0.000000
		CHANNELS 3 Zrotation Yrotation Xrotation
		JOINT Spine
		{
			OFFSET 0.000000 7.722015 1.166203
			CHANNELS 3 Zrotation Yrotation Xrotation
			JOINT Spine1
			{
				OFFSET 0.000000 12.024086 0.248766
				CHANNELS 3 Zrotation Yrotation Xrotation
				JOINT Spine2
				{
					OFFSET -0.000000 11.503036 -0.491240
					CHANNELS 3 Zrotation Yrotation Xrotation
					JOINT Neck_virtual
					{
						OFFSET 0.000000 0.000000 0.000000
						CHANNELS 3 Zrotation Yrotation Xrotation
						JOINT Neck
						{
							OFFSET 0.000000 18.430687 -3.123054
							CHANNELS 3 Zrotation Yrotation Xrotation
							JOINT Head
							{
								OFFSET -0.000000 9.051071 1.034021
								CHANNELS 3 Zrotation Yrotation Xrotation
								End Site
								{
									OFFSET 0.000000 0.000000 0.000000
								}
							}
						}
					}
					JOINT LeftShoulder_virtual
					{
						OFFSET 0.000000 0.000000 0.000000
						CHANNELS 3 Zrotation Yrotation Xrotation
						JOINT LeftShoulder
						{
							OFFSET 6.197824 13.665230 -4.064723
							CHANNELS 3 Zrotation Yrotation Xrotation
							JOINT LeftArm
							{
								OFFSET 7.778132 -0.187073 -1.709282
								CHANNELS 3 Zrotation Yrotation Xrotation
								JOINT LeftForeArm
								{
									OFFSET 21.954697 0.000000 -2.041093
									CHANNELS 3 Zrotation Yrotation Xrotation
									JOINT LeftHand
									{
										OFFSET 22.992908 0.000000 -0.870901
										CHANNELS 3 Zrotation Yrotation Xrotation
										End Site
										{
											OFFSET 0.000000 0.000000 0.000000
										}
									}
								}
							}
						}
					}
					JOINT RightShoulder_virtual
					{
						OFFSET 0.000000 0.000000 0.000000
						CHANNELS 3 Zrotation Yrotation Xrotation
						JOINT RightShoulder
						{
							OFFSET -6.197824 13.665230 -4.064723
							CHANNELS 3 Zrotation Yrotation Xrotation
							JOINT RightArm
							{
								OFFSET -7.778132 -0.187073 -1.709282
								CHANNELS 3 Zrotation Yrotation Xrotation
								JOINT RightForeArm
								{
									OFFSET -21.954697 0.000000 -2.041093
									CHANNELS 3 Zrotation Yrotation Xrotation
									JOINT RightHand
									{
										OFFSET -22.992908 0.000000 -0.870901
										CHANNELS 3 Zrotation Yrotation Xrotation
										End Site
										{
											OFFSET 0.000000 0.000000 0.000000
										}
									}
								}
							}
						}
					}
				}
			}
		}
	}
}
MOTION
Frames: 9
Frame Time: 0.033333
44.775211 73.791504 -12.523623 -179.195573 69.000374 -179.599551 -1.007533 5.218021 54.022159 2.908716 1.791237 -89.769586 0.203660 3.741257 65.491180 -4.769373 -7.736649 -17.176911 0.000000 0.000000 0.000000 5.430686 -1.226078 57.033681 11.405803 -15.659894 -96.371326 1.152681 -0.915082 77.270934 1.657042 3.755243 -17.679231 0.000000 0.000000 0.000000 7.833777 0.258343 72.556772 -0.114035 0.203433 21.579742 1.368883 -1.729377 0.391022 0.030838 0.034163 -0.075046 2.118799 -1.408354 1.799628 3.099032 -0.581167 -8.894537 0.000000 0.000000 0.000000 2.341344 -0.028294 -2.805331 4.210850 -25.145809 0.844646 1.040608 -52.749414 -32.898747 8.526840 -42.588388 -9.351528 0.000000 0.000000 0.000000 -0.822175 0.989360 -3.085521 18.336797 10.390878 4.063041 -24.765959 58.395659 -60.296097 -3.586364 33.865150 -0.669972 0.000000 0.000000 0.000000 
44.847542 73.760864 -12.714581 -178.947336 68.722925 -179.410546 -1.043780 5.410317 54.026182 3.008936 1.766116 -89.740408 0.212834 3.691967 65.656785 -4.952974 -7.787259 -17.271335 0.000000 0.000000 0.000000 5.484573 -1.163471 57.042147 11.213492 -15.726565 -96.193912 1.180280 -0.893637 77.391111 1.649309 3.723133 -17.791972 0.000000 0.000000 0.000000 7.749948 0.408497 72.542415 0.039319 0.363876 21.658936 1.452494 -1.766742 0.383047 0.010164 0.003079 -0.035798 2.170601 -1.421702 1.762246 3.024425 -0.580337 -8.892050 0.000000 0.000000 0.000000 2.331433 0.018738 -2.831242 3.881548 -25.357731 0.857233 1.460978 -53.082092 -32.740607 8.339470 -42.293590 -9.010590 0.000000 0.000000 0.000000 -0.880007 0.992015 -3.205486 18.153181 10.614064 4.239636 -24.266182 59.538349 -58.909241 -3.533120 34.763194 -0.499294 0.000000 0.000000 0.000000 
44.943737 73.749947 -12.904032 -179.324144 68.729421 -179.669670 -1.242522 5.518014 54.048824 3.058803 1.725552 -89.772981 0.314640 3.832535 65.733925 -5.086584 -7.810266 -17.319954 0.000000 0.000000 0.000000 5.349123 -0.998726 57.075222 10.988127 -15.762639 -96.124353 1.227252 -0.854059 77.466660 1.663976 3.689847 -17.771454 0.000000 0.000000 0.000000 7.512057 0.739771 72.513086 -0.074384 0.278876 21.632080 1.461023 -1.733730 0.336474 0.024035 0.071979 -0.055385 2.171137 -1.486619 1.839991 3.009510 -0.697837 -8.840182 0.000000 0.000000 0.000000 2.396282 -0.143908 -2.801306 3.863215 -25.413474 0.891004 1.857947 -53.209359 -32.818847 8.419863 -42.038984 -9.035365 0.000000 0.000000 0.000000 -0.861265 0.937133 -3.161056 18.207628 10.679842 4.411317 -23.731369 60.809051 -57.420567 -3.403136 36.095453 -0.122672 0.000000 0.000000 0.000000 
45.013172 73.735115 -13.105678 -179.142024 68.724516 -179.554007 -1.283948 5.650943 54.228642 3.054403 1.655732 -89.815867 0.304906 3.771480 65.847347 -5.091440 -7.790206 -17.424069 0.000000 0.000000 0.000000 5.364803 -0.989052 57.225579 10.775531 -15.700078 -96.108890 1.308458 -0.808038 77.457241 1.706206 3.679476 -17.696183 0.000000 0.000000 0.000000 7.328865 0.959478 72.664497 -0.109021 0.280204 21.630362 1.490653 -1.786401 0.363856 0.024247 0.051891 -0.025238 2.185763 -1.517683 1.892895 3.008044 -0.593560 -8.703083 0.000000 0.000000 0.000000 2.423441 -0.082334 -2.794686 3.973923 -25.515323 0.912799 2.554800 -53.287377 -33.614612 8.562730 -41.810074 -9.268947 0.000000 0.000000 0.000000 -0.808054 0.946109 -3.114782 18.156200 10.729698 4.410563 -23.628010 61.578889 -56.743996 -3.498177 37.188707 0.007102 0.000000 0.000000 0.000000 
45.015793 73.719620 -13.291353 -179.345564 68.605739 -179.681855 -1.445520 5.501822 54.363853 2.995247 1.645142 -90.008486 0.380655 3.863824 65.929863 -4.907871 -7.724200 -17.533026 0.000000 0.000000 0.000000 5.250591 -0.996922 57.396518 10.659446 -15.718497 -96.252679 1.386249 -0.769003 77.461688 1.725568 3.667272 -17.473632 0.000000 0.000000 0.000000 7.157269 1.023111 72.694093 -0.121079 0.337249 21.651527 1.515061 -1.810489 0.340015 -0.021925 0.062399 -0.053354 2.245864 -1.458904 1.935467 3.128078 -0.775000 -8.796267 0.000000 0.000000 0.000000 2.477687 -0.177660 -2.711777 4.138664 -25.633381 0.793877 2.983092 -53.483506 -34.306302 8.640656 -41.792951 -9.395164 0.000000 0.000000 0.000000 -0.767696 0.816703 -3.109260 18.381040 10.547259 4.703549 -24.570530 61.502985 -57.620692 -3.478569 37.654293 0.378420 0.000000 0.000000 0.000000 
44.944000 73.657791 -13.511910 -178.861713 68.653564 -179.352134 -1.481649 5.542377 54.541666 2.817778 1.696232 -90.189247 0.428911 3.819833 66.249536 -4.791718 -7.763389 -17.664433 0.000000 0.000000 0.000000 5.276794 -1.079200 57.541318 10.405337 -15.548099 -96.353267 1.525884 -0.580682 77.560555 1.725426 3.600819 -17.462125 0.000000 0.000000 0.000000 7.165146 0.998804 72.886615 -0.209818 0.376557 21.753123 1.494149 -1.804081 0.384566 -0.004024 0.081855 -0.041712 2.215501 -1.477416 1.939752 3.262155 -0.877295 -8.845287 0.000000 0.000000 0.000000 2.475240 -0.192875 -2.746022 4.426507 -25.659530 0.713841 3.136469 -53.731394 -35.052743 8.852645 -41.751270 -9.855113 0.000000 0.000000 0.000000 -0.757522 0.817887 -3.053416 18.493676 10.455176 4.804086 -26.125455 60.769259 -59.609342 -3.557823 37.078887 0.608900 0.000000 0.000000 0.000000 
44.846409 73.573265 -13.767754 -178.677161 68.549227 -179.234723 -1.698044 5.514211 54.543329 2.647335 1.780076 -90.424717 0.619814 3.772327 66.753023 -4.818971 -7.908112 -17.713928 0.000000 0.000000 0.000000 5.280972 -1.246310 57.612598 10.124428 -15.422166 -96.474906 1.678822 -0.354464 77.765863 1.691670 3.513826 -17.443810 0.000000 0.000000 0.000000 7.145609 0.824895 72.940724 -0.199733 0.385053 21.839045 1.501251 -1.814947 0.389176 0.024478 0.069526 -0.060865 2.170667 -1.564460 1.948614 3.389239 -0.864677 -8.843416 0.000000 0.000000 0.000000 2.439452 -0.134014 -2.777087 4.665709 -25.700784 0.608473 2.909029 -53.967428 -35.494103 8.826894 -41.581164 -9.952498 0.000000 0.000000 0.000000 -0.790857 0.922076 -3.024510 18.654095 10.456583 4.946662 -27.806235 59.611562 -61.805221 -3.660175 35.760866 0.929610 0.000000 0.000000 0.000000 
44.774429 73.490555 -14.027774 -179.207894 68.402125 -179.684532 -2.149428 5.219631 54.366468 2.499690 1.964199 -90.590773 0.896913 4.006552 67.291761 -4.683501 -8.059621 -17.752008 0.000000 0.000000 0.000000 5.097167 -1.342231 57.542827 9.742205 -15.508377 -96.567994 2.090928 -0.348228 78.032808 1.320075 3.028481 -17.360930 0.000000 0.000000 0.000000 7.138703 0.692011 72.834555 -0.176126 0.408672 21.897235 1.484861 -1.850467 0.397458 0.010655 0.035199 -0.053741 2.113796 -1.588789 2.036899 3.543689 -1.044283 -8.872796 0.000000 0.000000 0.000000 2.325803 -0.156372 -2.654160 5.021708 -25.788313 0.452262 2.285188 -54.220504 -35.605844 8.718871 -41.188892 -9.956638 0.000000 0.000000 0.000000 -0.852388 0.825192 -2.932787 18.810006 10.580025 5.173327 -29.289501 58.588803 -63.601745 -3.625465 34.230859 1.381012 0.000000 0.000000 0.000000 
44.773621 73.423798 -14.286560 -178.745627 68.367052 -179.290731 -2.387155 5.388077 54.167532 2.582717 2.166632 -90.608429 1.404072 4.069953 67.934496 -5.001196 -8.469912 -17.708269 0.000000 0.000000 0.000000 5.070749 -1.170644 57.590270 9.723306 -15.437795 -96.549642 1.949646 -0.132084 78.103042 1.566279 3.345415 -17.095475 0.000000 0.000000 0.000000 7.127770 0.632689 72.760154 -0.183253 0.496132 22.011903 1.472649 -1.793682 0.442460 -0.006725 0.082045 -0.036087 2.068400 -1.528150 1.951026 3.600614 -0.917256 -8.924877 0.000000 0.000000 0.000000 2.295767 -0.086244 -2.694728 5.361432 -25.825707 0.285717 1.607954 -54.244563 -35.528482 8.733085 -40.426469 -10.251225 0.000000 0.000000 0.000000 -0.870929 0.907598 -2.998736 18.698319 10.913736 5.407316 -30.152259 57.994166 -64.398363 -3.749417 33.173495 1.583420 0.000000 0.000000 0.000000 
